<svg width="12" height="13" viewBox="0 0 12 13" fill="none" xmlns="http://www.w3.org/2000/svg">
    <g clip-path="url(#clip0_269_25)">
        <g filter="url(#filter0_d_269_25)">
            <path
                d="M6.93443 6.43443L8.79289 8.29289C8.9255 8.4255 9 8.60536 9 8.79289C9 9.18342 8.68342 9.5 8.29289 9.5C8.10536 9.5 7.9255 9.4255 7.79289 9.29289L6 7.5L4.20711 9.29289C4.0745 9.4255 3.89464 9.5 3.70711 9.5C3.31658 9.5 3 9.18342 3 8.79289C3 8.60536 3.0745 8.4255 3.20711 8.29289L5 6.5L3.20711 4.70711C3.0745 4.5745 3 4.39464 3 4.20711C3 3.81658 3.31658 3.5 3.70711 3.5C3.89464 3.5 4.0745 3.5745 4.20711 3.70711L6 5.5L7.79289 3.70711C7.9255 3.5745 8.10818 3.5 8.29571 3.5C8.68097 3.5 9 3.81231 9 4.19757C9 4.39051 8.92009 4.57484 8.77926 4.70673L6.93443 6.43443Z"
                fill="#302E33" />
        </g>
    </g>
    <defs>
        <filter id="filter0_d_269_25" x="-7" y="-2.5" width="26" height="26"
            filterUnits="userSpaceOnUse" color-interpolation-filters="sRGB">
            <feFlood flood-opacity="0" result="BackgroundImageFix" />
            <feColorMatrix in="SourceAlpha" type="matrix"
                values="0 0 0 0 0 0 0 0 0 0 0 0 0 0 0 0 0 0 127 0" result="hardAlpha" />
            <feOffset dy="4" />
            <feGaussianBlur stdDeviation="5" />
            <feComposite in2="hardAlpha" operator="out" />
            <feColorMatrix type="matrix" values="0 0 0 0 0 0 0 0 0 0 0 0 0 0 0 0 0 0 0.25 0" />
            <feBlend mode="normal" in2="BackgroundImageFix" result="effect1_dropShadow_269_25" />
            <feBlend mode="normal" in="SourceGraphic" in2="effect1_dropShadow_269_25" result="shape" />
        </filter>
        <clipPath id="clip0_269_25">
            <rect width="12" height="12" fill="white" transform="translate(0 0.5)" />
        </clipPath>
    </defs>
</svg>